# xmcd CD database file
# Copyright (C) 1993-1999 CDDB, Inc.
#
# Track frame offsets:
#	182
#	64910
#	75275
#	85965
#	100070
#	111340
#
# Disc length: 1681
#
# Revision: 1
# Processed by: cddbd v1.5.1PL2 Copyright (c) Steve Scherf et al.
# Submitted via: CoolCD_Studio 1.4
#
DISCID=41068f06
DTITLE=Crazy Edddie and The Master Mix - Os Incríveis Anos 50, 60 &
DTITLE=70
DYEAR=1900
DGENRE=
TTITLE0=Medley Swing the Mood
TTITLE1=Stupid Cupid
TTITLE2=Lucille
TTITLE3=Boogie Oogie Oogie
TTITLE4=You are the One That I Want
TTITLE5=Grease
EXTD=
EXTT0=
EXTT1=
EXTT2=
EXTT3=
EXTT4=
EXTT5=
PLAYORDER=
